<svg width="1920" height="1414" viewBox="0 0 1920 1414" fill="none" xmlns="http://www.w3.org/2000/svg">
<g clip-path="url(#clip0_698_2988)">
<rect width="1920" height="1414" fill="black"/>
<rect width="1920" height="1414" fill="url(#paint0_radial_698_2988)" fill-opacity="0.78"/>
<g clip-path="url(#clip1_698_2988)">
<rect width="1920" height="1471" fill="#013536" fill-opacity="0.5"/>
<g style="mix-blend-mode:color-burn" clip-path="url(#clip2_698_2988)">
<rect x="-52.4248" y="-99" width="2108" height="1587" fill="black"/>
<mask id="mask0_698_2988" style="mask-type:luminance" maskUnits="userSpaceOnUse" x="-10" y="-33" width="2624" height="1472">
<path d="M2613.84 -32.4961H-9.15576V1438.11H2613.84V-32.4961Z" fill="white"/>
</mask>
<g mask="url(#mask0_698_2988)">
<path d="M2613.84 -29.5547H-9.15601V1441.05H2613.84V-29.5547Z" fill="url(#paint1_linear_698_2988)"/>
<path style="mix-blend-mode:screen" d="M-243.477 32.2109C-172.132 75.1526 284.97 358.686 340.577 867.515C387.092 1291.05 137.382 1708.7 -302.932 1952.82H1162.45V32.2109H-243.477Z" fill="url(#paint2_radial_698_2988)"/>
<path style="mix-blend-mode:screen" d="M-34.6867 1242.52C-49.0257 1169.87 -133.661 697.515 254.543 304.569C578.046 -22.494 1105.79 -169.555 1622.35 -80.1418L586.09 -951.623L-1028.63 406.335L-34.6867 1242.52Z" fill="url(#paint3_radial_698_2988)"/>
<path style="mix-blend-mode:screen" d="M1017.66 -35.7312C1198.47 98.0939 1513.23 367.803 1712.93 792.808C1987.12 1376.64 1875.91 1894.88 1820.65 2093.12L2423.24 2020.76L2052.87 -160.145L1017.66 -35.7312Z" fill="url(#paint4_radial_698_2988)"/>
<path style="mix-blend-mode:screen" d="M3833.71 1751.94C3697.67 1373.99 3339.54 1086.93 2896.78 1005.46C2489.34 930.459 1985.37 1155.17 1867.51 1203.99C1653.83 1292.23 1464.97 1406.35 1137.62 1443.11C991.78 1459.58 869.024 1454.88 787.536 1448.41L779.143 1669L3834.06 1751.94H3833.71Z" fill="url(#paint5_radial_698_2988)"/>
<path style="mix-blend-mode:screen" d="M-298.036 254.861C-203.258 363.392 -39.9327 513.688 203.132 567.218C781.241 694.867 1197.42 139.86 1844.78 194.567C2055.32 212.508 2357.84 300.45 2699.53 646.043L2932.1 17.5056L-11.2545 -448.971L-298.036 254.861Z" fill="url(#paint6_radial_698_2988)"/>
<path style="mix-blend-mode:screen" d="M-333.709 421.628C-255.718 539.276 -115.825 705.455 117.447 783.985C672.474 971.046 1167.35 463.981 1801.41 586.042C2007.76 625.748 2294.89 744.867 2582.72 1123.7L2906.57 524.276L2400.16 -853.094L54.8449 -246.91L-334.059 421.628H-333.709Z" fill="url(#paint7_radial_698_2988)"/>
<path style="mix-blend-mode:screen" d="M-377.483 1370.75C7.57373 1089.87 344.367 1006.34 580.437 981.924C1211.01 916.335 1648.87 1217.81 2340.64 1042.51C2500.47 1001.92 2623.23 948.983 2698.42 912.512L2723.25 1429.87L-369.439 1535.46L-377.483 1370.75Z" fill="url(#paint8_radial_698_2988)"/>
<path style="mix-blend-mode:multiply" d="M211.175 -79.5508C211.175 -79.5508 448.994 276.336 1050.54 185.158C1652.08 93.9808 2096.24 -144.257 2736.25 229.277V-79.5508H211.175Z" fill="url(#paint9_radial_698_2988)"/>
<path style="mix-blend-mode:multiply" d="M344.074 1602.82C742.421 1335.47 1083.06 1263.41 1319.83 1246.94C1953.2 1202.82 2376.02 1519 3075.49 1367.52C3237.07 1332.52 3362.27 1283.7 3439.21 1249.88V1767.53H344.074V1602.82Z" fill="url(#paint10_radial_698_2988)"/>
<path style="mix-blend-mode:screen" d="M3071.99 1379.29C3000.65 1336.35 2543.55 1052.82 2487.94 543.985C2441.43 120.451 2691.13 -297.202 3131.45 -541.322H1666.07V1379.29H3071.99Z" fill="url(#paint11_radial_698_2988)"/>
</g>
</g>
</g>
</g>
<defs>
<radialGradient id="paint0_radial_698_2988" cx="0" cy="0" r="1" gradientUnits="userSpaceOnUse" gradientTransform="translate(80 707) scale(1202.5 603.415)">
<stop stop-color="#009B9E"/>
<stop offset="1" stop-color="#009B9E" stop-opacity="0"/>
</radialGradient>
<linearGradient id="paint1_linear_698_2988" x1="1667.47" y1="453.687" x2="3272.85" y2="-1113.02" gradientUnits="userSpaceOnUse">
<stop stop-color="#DCE1E3"/>
<stop offset="1" stop-color="#EBF0F2"/>
</linearGradient>
<radialGradient id="paint2_radial_698_2988" cx="0" cy="0" r="1" gradientUnits="userSpaceOnUse" gradientTransform="translate(135.983 935.163) scale(959.319 806.775)">
<stop stop-color="white"/>
<stop offset="0.1" stop-color="#D3D3D3"/>
<stop offset="0.5" stop-color="#797979"/>
<stop offset="0.7" stop-color="#383838"/>
<stop offset="0.9" stop-color="#0F0F0F"/>
<stop offset="1"/>
</radialGradient>
<radialGradient id="paint3_radial_698_2988" cx="0" cy="0" r="1" gradientTransform="matrix(-678.341 -570.476 678.341 -570.476 456.166 378.286)" gradientUnits="userSpaceOnUse">
<stop stop-color="white"/>
<stop offset="0.1" stop-color="#D3D3D3"/>
<stop offset="0.5" stop-color="#797979"/>
<stop offset="0.7" stop-color="#383838"/>
<stop offset="0.9" stop-color="#0F0F0F"/>
<stop offset="1"/>
</radialGradient>
<radialGradient id="paint4_radial_698_2988" cx="0" cy="0" r="1" gradientTransform="matrix(987.142 -118.151 140.491 830.174 1525.86 441.441)" gradientUnits="userSpaceOnUse">
<stop stop-color="white"/>
<stop offset="0.1" stop-color="#D3D3D3"/>
<stop offset="0.5" stop-color="#797979"/>
<stop offset="0.7" stop-color="#383838"/>
<stop offset="0.9" stop-color="#0F0F0F"/>
<stop offset="1"/>
</radialGradient>
<radialGradient id="paint5_radial_698_2988" cx="0" cy="0" r="1" gradientTransform="matrix(-841.345 -23.4722 27.9103 -707.561 2330.46 1151.25)" gradientUnits="userSpaceOnUse">
<stop stop-color="white"/>
<stop offset="0.1" stop-color="#D3D3D3"/>
<stop offset="0.5" stop-color="#797979"/>
<stop offset="0.7" stop-color="#383838"/>
<stop offset="0.9" stop-color="#0F0F0F"/>
<stop offset="1"/>
</radialGradient>
<radialGradient id="paint6_radial_698_2988" cx="0" cy="0" r="1" gradientTransform="matrix(1118.7 322.111 -383.016 940.81 1296.81 215.161)" gradientUnits="userSpaceOnUse">
<stop stop-color="white"/>
<stop offset="0.1" stop-color="#D3D3D3"/>
<stop offset="0.5" stop-color="#797979"/>
<stop offset="0.7" stop-color="#383838"/>
<stop offset="0.9" stop-color="#0F0F0F"/>
<stop offset="1"/>
</radialGradient>
<radialGradient id="paint7_radial_698_2988" cx="0" cy="0" r="1" gradientTransform="matrix(1289.89 531.427 -631.909 1084.78 1528.98 77.7466)" gradientUnits="userSpaceOnUse">
<stop stop-color="white"/>
<stop offset="0.1" stop-color="#D3D3D3"/>
<stop offset="0.5" stop-color="#797979"/>
<stop offset="0.7" stop-color="#383838"/>
<stop offset="0.9" stop-color="#0F0F0F"/>
<stop offset="1"/>
</radialGradient>
<radialGradient id="paint8_radial_698_2988" cx="0" cy="0" r="1" gradientTransform="matrix(1115.45 -37.6771 44.8011 938.079 642.998 986.547)" gradientUnits="userSpaceOnUse">
<stop stop-color="white"/>
<stop offset="0.1" stop-color="#D3D3D3"/>
<stop offset="0.5" stop-color="#797979"/>
<stop offset="0.7" stop-color="#383838"/>
<stop offset="0.9" stop-color="#0F0F0F"/>
<stop offset="1"/>
</radialGradient>
<radialGradient id="paint9_radial_698_2988" cx="0" cy="0" r="1" gradientTransform="matrix(75.0658 343.965 -1799.61 277.769 1100.07 223.258)" gradientUnits="userSpaceOnUse">
<stop stop-color="#D2DAE3"/>
<stop offset="0.1" stop-color="#DBE1E8" stop-opacity="0.8"/>
<stop offset="0.3" stop-color="#E6EAEF" stop-opacity="0.6"/>
<stop offset="0.5" stop-color="#EFF1F5" stop-opacity="0.4"/>
<stop offset="0.6" stop-color="#F5F7F9" stop-opacity="0.2"/>
<stop offset="0.8" stop-color="#FAFBFC" stop-opacity="0"/>
<stop offset="0.9" stop-color="#FDFEFE" stop-opacity="0"/>
<stop offset="1" stop-color="white" stop-opacity="0"/>
</radialGradient>
<radialGradient id="paint10_radial_698_2988" cx="0" cy="0" r="1" gradientUnits="userSpaceOnUse" gradientTransform="translate(1403.77 1203.29) scale(1299.61 218.591)">
<stop stop-color="#D2DAE3"/>
<stop offset="0.1" stop-color="#DBE1E8" stop-opacity="0.8"/>
<stop offset="0.3" stop-color="#E6EAEF" stop-opacity="0.6"/>
<stop offset="0.5" stop-color="#EFF1F5" stop-opacity="0.4"/>
<stop offset="0.6" stop-color="#F5F7F9" stop-opacity="0.2"/>
<stop offset="0.8" stop-color="#FAFBFC" stop-opacity="0"/>
<stop offset="0.9" stop-color="#FDFEFE" stop-opacity="0"/>
<stop offset="1" stop-color="white" stop-opacity="0"/>
</radialGradient>
<radialGradient id="paint11_radial_698_2988" cx="0" cy="0" r="1" gradientUnits="userSpaceOnUse" gradientTransform="translate(2692.53 476.337) rotate(-180) scale(959.319 806.775)">
<stop stop-color="white"/>
<stop offset="0.1" stop-color="#D3D3D3"/>
<stop offset="0.5" stop-color="#797979"/>
<stop offset="0.7" stop-color="#383838"/>
<stop offset="0.9" stop-color="#0F0F0F"/>
<stop offset="1"/>
</radialGradient>
<clipPath id="clip0_698_2988">
<rect width="1920" height="1414" fill="white"/>
</clipPath>
<clipPath id="clip1_698_2988">
<rect width="1920" height="1471" fill="white"/>
</clipPath>
<clipPath id="clip2_698_2988">
<rect width="2623" height="1441" fill="white" transform="translate(-452)"/>
</clipPath>
</defs>
</svg>
