<svg width="1920" height="1615" viewBox="0 0 1920 1615" fill="none" xmlns="http://www.w3.org/2000/svg">
<g clip-path="url(#clip0_680_3896)">
<rect width="1920" height="1615" fill="black"/>
<rect width="1920" height="1615" fill="url(#paint0_radial_680_3896)" fill-opacity="0.6"/>
<g style="mix-blend-mode:color-burn" clip-path="url(#clip1_680_3896)">
<mask id="mask0_680_3896" style="mask-type:luminance" maskUnits="userSpaceOnUse" x="0" y="-4" width="1920" height="1616">
<path d="M1920 -3.23047H0V1611.77H1920V-3.23047Z" fill="white"/>
</mask>
<g mask="url(#mask0_680_3896)">
<path d="M1920 0H0V1615H1920V0Z" fill="url(#paint1_linear_680_3896)"/>
<path style="mix-blend-mode:screen" d="M-171.52 67.8281C-119.296 114.986 215.296 426.358 256 985.148C290.048 1450.27 107.264 1908.93 -215.04 2177.02H857.6V67.8281H-171.52Z" fill="url(#paint2_radial_680_3896)"/>
<path style="mix-blend-mode:screen" d="M-18.688 1396.97C-29.184 1317.19 -91.136 798.456 193.024 366.928C429.824 7.75157 816.128 -153.749 1194.24 -55.5565L435.712 -1012.61L-746.24 478.686L-18.688 1396.97Z" fill="url(#paint3_radial_680_3896)"/>
<path style="mix-blend-mode:screen" d="M751.616 -6.78505C883.968 140.18 1114.37 436.371 1260.54 903.106C1461.25 1544.26 1379.84 2113.39 1339.39 2331.09L1780.48 2251.63L1509.38 -143.414L751.616 -6.78505Z" fill="url(#paint4_radial_680_3896)"/>
<path style="mix-blend-mode:screen" d="M2812.93 1956.41C2713.34 1541.35 2451.2 1226.11 2127.1 1136.63C1828.86 1054.27 1459.97 1301.04 1373.7 1354.66C1217.28 1451.56 1079.04 1576.88 839.424 1617.26C732.672 1635.35 642.816 1630.18 583.168 1623.07L577.024 1865.32L2813.18 1956.41H2812.93Z" fill="url(#paint5_radial_680_3896)"/>
<path style="mix-blend-mode:screen" d="M-211.456 312.341C-142.08 431.528 -22.528 596.581 155.392 655.367C578.56 795.549 883.2 186.048 1357.06 246.126C1511.17 265.829 1732.61 362.406 1982.72 741.931L2152.96 51.6804L-1.53604 -460.598L-211.456 312.341Z" fill="url(#paint6_radial_680_3896)"/>
<path style="mix-blend-mode:screen" d="M-237.568 495.48C-180.48 624.68 -78.0799 807.175 92.6721 893.416C498.944 1098.84 861.184 541.992 1325.31 676.037C1476.35 719.642 1686.53 850.457 1897.22 1266.48L2134.27 608.207L1763.58 -904.402L46.848 -238.699L-237.824 495.48H-237.568Z" fill="url(#paint7_radial_680_3896)"/>
<path style="mix-blend-mode:screen" d="M-284.16 1505.18C-2.3039 1196.71 244.224 1104.98 417.024 1078.17C878.592 1006.14 1199.1 1337.22 1705.47 1144.71C1822.46 1100.14 1912.32 1042 1967.36 1001.95L1985.54 1570.1L-278.272 1686.06L-284.16 1505.18Z" fill="url(#paint8_radial_680_3896)"/>
<path style="mix-blend-mode:multiply" d="M161.28 -54.9102C161.28 -54.9102 335.36 335.92 775.68 235.79C1216 135.66 1541.12 -125.97 2009.6 284.24V-54.9102H161.28Z" fill="url(#paint9_radial_680_3896)"/>
<path style="mix-blend-mode:multiply" d="M258.56 1792.65C550.144 1499.04 799.488 1419.91 972.8 1401.82C1436.42 1353.37 1745.92 1700.6 2257.92 1534.25C2376.19 1495.81 2467.84 1442.2 2524.16 1405.05V1973.53H258.56V1792.65Z" fill="url(#paint10_radial_680_3896)"/>
<path style="mix-blend-mode:screen" d="M2255.36 1547.17C2203.14 1500.01 1868.54 1188.64 1827.84 629.85C1793.79 164.73 1976.58 -293.93 2298.88 -562.02H1226.24V1547.17H2255.36Z" fill="url(#paint11_radial_680_3896)"/>
</g>
</g>
</g>
<defs>
<radialGradient id="paint0_radial_680_3896" cx="0" cy="0" r="1" gradientTransform="matrix(744 -1552.31 953.103 812.448 1176 239.5)" gradientUnits="userSpaceOnUse">
<stop stop-color="#009B9E"/>
<stop offset="1" stop-color="#009B9E" stop-opacity="0"/>
</radialGradient>
<linearGradient id="paint1_linear_680_3896" x1="1227.26" y1="530.689" x2="2839.41" y2="-517.989" gradientUnits="userSpaceOnUse">
<stop stop-color="#DCE1E3"/>
<stop offset="1" stop-color="#EBF0F2"/>
</linearGradient>
<radialGradient id="paint2_radial_680_3896" cx="0" cy="0" r="1" gradientUnits="userSpaceOnUse" gradientTransform="translate(106.24 1059.44) scale(702.208 885.989)">
<stop stop-color="white"/>
<stop offset="0.1" stop-color="#D3D3D3"/>
<stop offset="0.5" stop-color="#797979"/>
<stop offset="0.7" stop-color="#383838"/>
<stop offset="0.9" stop-color="#0F0F0F"/>
<stop offset="1"/>
</radialGradient>
<radialGradient id="paint3_radial_680_3896" cx="0" cy="0" r="1" gradientTransform="matrix(-496.536 -626.489 496.536 -626.489 340.61 447.883)" gradientUnits="userSpaceOnUse">
<stop stop-color="white"/>
<stop offset="0.1" stop-color="#D3D3D3"/>
<stop offset="0.5" stop-color="#797979"/>
<stop offset="0.7" stop-color="#383838"/>
<stop offset="0.9" stop-color="#0F0F0F"/>
<stop offset="1"/>
</radialGradient>
<radialGradient id="paint4_radial_680_3896" cx="0" cy="0" r="1" gradientTransform="matrix(722.575 -129.752 102.838 911.686 1123.61 517.239)" gradientUnits="userSpaceOnUse">
<stop stop-color="white"/>
<stop offset="0.1" stop-color="#D3D3D3"/>
<stop offset="0.5" stop-color="#797979"/>
<stop offset="0.7" stop-color="#383838"/>
<stop offset="0.9" stop-color="#0F0F0F"/>
<stop offset="1"/>
</radialGradient>
<radialGradient id="paint5_radial_680_3896" cx="0" cy="0" r="1" gradientTransform="matrix(-615.853 -25.7769 20.43 -777.034 1712.57 1296.74)" gradientUnits="userSpaceOnUse">
<stop stop-color="white"/>
<stop offset="0.1" stop-color="#D3D3D3"/>
<stop offset="0.5" stop-color="#797979"/>
<stop offset="0.7" stop-color="#383838"/>
<stop offset="0.9" stop-color="#0F0F0F"/>
<stop offset="1"/>
</radialGradient>
<radialGradient id="paint6_radial_680_3896" cx="0" cy="0" r="1" gradientTransform="matrix(818.871 353.738 -280.362 1033.18 955.947 268.743)" gradientUnits="userSpaceOnUse">
<stop stop-color="white"/>
<stop offset="0.1" stop-color="#D3D3D3"/>
<stop offset="0.5" stop-color="#797979"/>
<stop offset="0.7" stop-color="#383838"/>
<stop offset="0.9" stop-color="#0F0F0F"/>
<stop offset="1"/>
</radialGradient>
<radialGradient id="paint7_radial_680_3896" cx="0" cy="0" r="1" gradientTransform="matrix(944.179 583.606 -462.549 1191.29 1125.9 117.834)" gradientUnits="userSpaceOnUse">
<stop stop-color="white"/>
<stop offset="0.1" stop-color="#D3D3D3"/>
<stop offset="0.5" stop-color="#797979"/>
<stop offset="0.7" stop-color="#383838"/>
<stop offset="0.9" stop-color="#0F0F0F"/>
<stop offset="1"/>
</radialGradient>
<radialGradient id="paint8_radial_680_3896" cx="0" cy="0" r="1" gradientTransform="matrix(816.494 -41.3765 32.7938 1030.19 462.818 1083.25)" gradientUnits="userSpaceOnUse">
<stop stop-color="white"/>
<stop offset="0.1" stop-color="#D3D3D3"/>
<stop offset="0.5" stop-color="#797979"/>
<stop offset="0.7" stop-color="#383838"/>
<stop offset="0.9" stop-color="#0F0F0F"/>
<stop offset="1"/>
</radialGradient>
<radialGradient id="paint9_radial_680_3896" cx="0" cy="0" r="1" gradientTransform="matrix(54.9471 377.738 -1317.29 305.042 811.939 277.63)" gradientUnits="userSpaceOnUse">
<stop stop-color="#D2DAE3"/>
<stop offset="0.1" stop-color="#DBE1E8" stop-opacity="0.8"/>
<stop offset="0.3" stop-color="#E6EAEF" stop-opacity="0.6"/>
<stop offset="0.5" stop-color="#EFF1F5" stop-opacity="0.4"/>
<stop offset="0.6" stop-color="#F5F7F9" stop-opacity="0.2"/>
<stop offset="0.8" stop-color="#FAFBFC" stop-opacity="0"/>
<stop offset="0.9" stop-color="#FDFEFE" stop-opacity="0"/>
<stop offset="1" stop-color="white" stop-opacity="0"/>
</radialGradient>
<radialGradient id="paint10_radial_680_3896" cx="0" cy="0" r="1" gradientUnits="userSpaceOnUse" gradientTransform="translate(1034.24 1353.89) scale(951.296 240.054)">
<stop stop-color="#D2DAE3"/>
<stop offset="0.1" stop-color="#DBE1E8" stop-opacity="0.8"/>
<stop offset="0.3" stop-color="#E6EAEF" stop-opacity="0.6"/>
<stop offset="0.5" stop-color="#EFF1F5" stop-opacity="0.4"/>
<stop offset="0.6" stop-color="#F5F7F9" stop-opacity="0.2"/>
<stop offset="0.8" stop-color="#FAFBFC" stop-opacity="0"/>
<stop offset="0.9" stop-color="#FDFEFE" stop-opacity="0"/>
<stop offset="1" stop-color="white" stop-opacity="0"/>
</radialGradient>
<radialGradient id="paint11_radial_680_3896" cx="0" cy="0" r="1" gradientUnits="userSpaceOnUse" gradientTransform="translate(1977.6 555.56) rotate(-180) scale(702.208 885.989)">
<stop stop-color="white"/>
<stop offset="0.1" stop-color="#D3D3D3"/>
<stop offset="0.5" stop-color="#797979"/>
<stop offset="0.7" stop-color="#383838"/>
<stop offset="0.9" stop-color="#0F0F0F"/>
<stop offset="1"/>
</radialGradient>
<clipPath id="clip0_680_3896">
<rect width="1920" height="1615" fill="white"/>
</clipPath>
<clipPath id="clip1_680_3896">
<rect width="1920" height="1615" fill="white"/>
</clipPath>
</defs>
</svg>
