<svg width="1920" height="705" viewBox="0 0 1920 705" fill="none" xmlns="http://www.w3.org/2000/svg">
<g style="mix-blend-mode:color-burn" clip-path="url(#clip0_495_2974)">
<mask id="mask0_495_2974" style="mask-type:luminance" maskUnits="userSpaceOnUse" x="0" y="-3" width="1920" height="1325">
<path d="M1920 -2.64844H0V1321.35H1920V-2.64844Z" fill="white"/>
</mask>
<g mask="url(#mask0_495_2974)">
<path d="M1920 0H0V1324H1920V0Z" fill="url(#paint0_linear_495_2974)"/>
<path style="mix-blend-mode:screen" d="M-171.52 55.6074C-119.296 94.2682 215.296 349.535 256 807.639C290.048 1188.95 107.264 1564.97 -215.04 1784.75H857.6V55.6074H-171.52Z" fill="url(#paint1_radial_495_2974)"/>
<path style="mix-blend-mode:screen" d="M-18.6882 1145.26C-29.1842 1079.85 -91.1363 654.585 193.024 300.812C429.824 6.3548 816.128 -126.045 1194.24 -45.5461L435.712 -830.148L-746.24 392.433L-18.6882 1145.26Z" fill="url(#paint2_radial_495_2974)"/>
<path style="mix-blend-mode:screen" d="M751.616 -5.56186C883.968 114.922 1114.37 357.744 1260.54 740.38C1461.25 1266.01 1379.84 1732.59 1339.39 1911.06L1780.48 1845.92L1509.38 -117.572L751.616 -5.56186Z" fill="url(#paint3_radial_495_2974)"/>
<path style="mix-blend-mode:screen" d="M-211.456 256.061C-142.08 353.772 -22.528 489.085 155.392 537.279C578.56 652.202 883.2 152.524 1357.06 201.777C1511.17 217.93 1732.61 297.105 1982.72 608.245L2152.96 42.3673L-1.53604 -377.605L-211.456 256.061Z" fill="url(#paint4_radial_495_2974)"/>
<path style="mix-blend-mode:screen" d="M-237.568 406.202C-180.48 512.122 -78.0802 661.734 92.6718 732.435C498.944 900.848 861.184 444.333 1325.31 554.225C1476.35 589.973 1686.53 697.217 1897.22 1038.28L2134.27 498.617L1763.58 -741.441L46.8478 -195.689L-237.824 406.202H-237.568Z" fill="url(#paint5_radial_495_2974)"/>
<path style="mix-blend-mode:multiply" d="M161.28 -45.0156C161.28 -45.0156 335.36 275.392 775.68 193.304C1216 111.216 1541.12 -103.272 2009.6 233.024V-45.0156H161.28Z" fill="url(#paint6_radial_495_2974)"/>
<path style="mix-blend-mode:screen" d="M2255.36 1268.39C2203.14 1229.73 1868.54 974.464 1827.84 516.36C1793.79 135.048 1976.58 -240.968 2298.88 -460.752H1226.24V1268.39H2255.36Z" fill="url(#paint7_radial_495_2974)"/>
</g>
</g>
<defs>
<linearGradient id="paint0_linear_495_2974" x1="1227.26" y1="435.066" x2="2635.18" y2="-682.05" gradientUnits="userSpaceOnUse">
<stop stop-color="#DCE1E3"/>
<stop offset="1" stop-color="#EBF0F2"/>
</linearGradient>
<radialGradient id="paint1_radial_495_2974" cx="0" cy="0" r="1" gradientUnits="userSpaceOnUse" gradientTransform="translate(106.24 868.543) scale(702.208 726.346)">
<stop stop-color="white"/>
<stop offset="0.1" stop-color="#D3D3D3"/>
<stop offset="0.5" stop-color="#797979"/>
<stop offset="0.7" stop-color="#383838"/>
<stop offset="0.9" stop-color="#0F0F0F"/>
<stop offset="1"/>
</radialGradient>
<radialGradient id="paint2_radial_495_2974" cx="0" cy="0" r="1" gradientTransform="matrix(-496.536 -513.604 496.536 -513.604 340.61 367.181)" gradientUnits="userSpaceOnUse">
<stop stop-color="white"/>
<stop offset="0.1" stop-color="#D3D3D3"/>
<stop offset="0.5" stop-color="#797979"/>
<stop offset="0.7" stop-color="#383838"/>
<stop offset="0.9" stop-color="#0F0F0F"/>
<stop offset="1"/>
</radialGradient>
<radialGradient id="paint3_radial_495_2974" cx="0" cy="0" r="1" gradientTransform="matrix(722.575 -106.373 102.838 747.413 1123.61 424.04)" gradientUnits="userSpaceOnUse">
<stop stop-color="white"/>
<stop offset="0.1" stop-color="#D3D3D3"/>
<stop offset="0.5" stop-color="#797979"/>
<stop offset="0.7" stop-color="#383838"/>
<stop offset="0.9" stop-color="#0F0F0F"/>
<stop offset="1"/>
</radialGradient>
<radialGradient id="paint4_radial_495_2974" cx="0" cy="0" r="1" gradientTransform="matrix(818.871 290 -280.362 847.02 955.947 220.318)" gradientUnits="userSpaceOnUse">
<stop stop-color="white"/>
<stop offset="0.1" stop-color="#D3D3D3"/>
<stop offset="0.5" stop-color="#797979"/>
<stop offset="0.7" stop-color="#383838"/>
<stop offset="0.9" stop-color="#0F0F0F"/>
<stop offset="1"/>
</radialGradient>
<radialGradient id="paint5_radial_495_2974" cx="0" cy="0" r="1" gradientTransform="matrix(944.179 478.449 -462.549 976.635 1125.89 96.6025)" gradientUnits="userSpaceOnUse">
<stop stop-color="white"/>
<stop offset="0.1" stop-color="#D3D3D3"/>
<stop offset="0.5" stop-color="#797979"/>
<stop offset="0.7" stop-color="#383838"/>
<stop offset="0.9" stop-color="#0F0F0F"/>
<stop offset="1"/>
</radialGradient>
<radialGradient id="paint6_radial_495_2974" cx="0" cy="0" r="1" gradientTransform="matrix(54.9471 309.675 -1317.29 250.078 811.938 227.605)" gradientUnits="userSpaceOnUse">
<stop stop-color="#D2DAE3"/>
<stop offset="0.1" stop-color="#DBE1E8" stop-opacity="0.8"/>
<stop offset="0.3" stop-color="#E6EAEF" stop-opacity="0.6"/>
<stop offset="0.5" stop-color="#EFF1F5" stop-opacity="0.4"/>
<stop offset="0.6" stop-color="#F5F7F9" stop-opacity="0.2"/>
<stop offset="0.8" stop-color="#FAFBFC" stop-opacity="0"/>
<stop offset="0.9" stop-color="#FDFEFE" stop-opacity="0"/>
<stop offset="1" stop-color="white" stop-opacity="0"/>
</radialGradient>
<radialGradient id="paint7_radial_495_2974" cx="0" cy="0" r="1" gradientUnits="userSpaceOnUse" gradientTransform="translate(1977.6 455.456) rotate(-180) scale(702.208 726.346)">
<stop stop-color="white"/>
<stop offset="0.1" stop-color="#D3D3D3"/>
<stop offset="0.5" stop-color="#797979"/>
<stop offset="0.7" stop-color="#383838"/>
<stop offset="0.9" stop-color="#0F0F0F"/>
<stop offset="1"/>
</radialGradient>
<clipPath id="clip0_495_2974">
<rect width="1920" height="1324" fill="white"/>
</clipPath>
</defs>
</svg>
