<svg width="117" height="48" viewBox="0 0 117 48" fill="none" xmlns="http://www.w3.org/2000/svg">
<g clip-path="url(#clip0_1_897)">
<path d="M79.3953 14.9205C79.3953 15.0903 79.3727 15.2912 79.3113 15.4799C79.028 16.3055 78.2173 17.1151 76.9313 17.1151C76.04 17.1151 75.2733 16.5802 75.2733 15.4148C75.2733 13.5265 77.4733 13.1811 79.3953 13.222V14.9205ZM81.126 12.2181C81.126 10.2619 80.398 8.22119 77.4133 8.22119C76.1807 8.22119 74.9987 8.55559 74.19 9.07739L74.5927 10.2584C75.278 9.80159 76.228 9.53052 77.1367 9.53052C79.1373 9.51979 79.3607 10.9896 79.3607 11.7833V11.9907C75.588 11.9639 73.492 13.2632 73.492 15.6284C73.492 17.0301 74.5013 18.4305 76.4747 18.4305C77.8727 18.4305 78.926 17.7375 79.462 16.9751H79.5147L79.6713 18.2084H81.2733C81.164 17.5377 81.126 16.7058 81.126 15.8717V12.2181Z" fill="#F9D523"/>
<path d="M88.9707 13.9186C88.6567 14.8171 88.3767 15.6297 88.1533 16.4404H88.1C87.882 15.6297 87.6293 14.8236 87.3 13.9186L85.3853 8.44336H83.4833L87.202 18.2085H88.896L92.738 8.44336H90.8813L88.9707 13.9186Z" fill="#F9D523"/>
<path d="M95.882 18.2085H97.6487V4.25952L95.882 4.82744V18.2085Z" fill="#F9D523"/>
<path d="M102.487 4.57739C101.837 4.57733 101.381 5.07295 101.383 5.68271C101.381 6.2869 101.813 6.78639 102.455 6.78639C103.161 6.78639 103.586 6.28683 103.585 5.68271C103.58 5.06229 103.15 4.57729 102.487 4.57739Z" fill="#F9D523"/>
<path d="M103.367 8.4436H101.601V18.2087H103.367V8.4436Z" fill="#F9D523"/>
<path d="M115.54 8.4436H113.407L110.529 11.809C110.251 12.1452 109.915 12.5779 109.677 12.9211H109.636V4.45654L107.871 5.02401V18.2087H109.636V14.5327L110.545 13.5157L113.905 18.2087H116.069L111.769 12.4589L115.54 8.4436Z" fill="#F9D523"/>
<path d="M66.4533 13.0213C66.2907 13.4847 66.0419 13.9066 65.7138 14.2751L65.3498 14.6835H67.5767C66.567 16.288 64.8084 17.2687 62.8931 17.2687C59.8426 17.2687 57.3609 14.7868 57.3609 11.7367C57.3609 8.68613 59.8426 6.20439 62.8931 6.20439C64.6356 6.20439 66.2961 7.03946 67.3347 8.43806L67.4087 8.53713H69.32L69.1087 8.16966C67.8333 5.94921 65.4514 4.56982 62.8931 4.56982C58.9413 4.56982 55.7263 7.7848 55.7263 11.7367C55.7263 15.6883 58.9413 18.9031 62.8931 18.9031C65.9183 18.9031 68.632 16.989 69.646 14.1403L70.012 12.8573H66.5108L66.4533 13.0213Z" fill="#F9D523"/>
<path d="M77.0113 36.4296C77.0113 36.5993 76.9887 36.8002 76.9273 36.9889C76.6447 37.8145 75.8333 38.6242 74.5473 38.6242C73.6567 38.6242 72.8893 38.0892 72.8893 36.9238C72.8893 35.0355 75.09 34.6902 77.0113 34.731V36.4296ZM78.742 33.7271C78.742 31.7709 78.014 29.7302 75.0293 29.7302C73.7973 29.7302 72.6153 30.0646 71.806 30.5864L72.2093 31.7674C72.894 31.3106 73.8447 31.0396 74.7533 31.0396C76.7533 31.0288 76.9767 32.4986 76.9767 33.2922V33.4997C73.2047 33.473 71.108 34.7722 71.108 37.1374C71.108 38.5392 72.118 39.9396 74.0907 39.9396C75.4893 39.9396 76.542 39.2465 77.0787 38.4841H77.1313L77.288 39.7174H78.8893C78.78 39.0467 78.742 38.2148 78.742 37.3806V33.7271Z" fill="#F9D523"/>
<path d="M86.1 38.5483C84.8407 38.5483 83.7647 37.7066 83.4447 36.4655C83.394 36.238 83.368 35.9937 83.368 35.7432V34.0542C83.368 33.8207 83.424 33.5618 83.482 33.3326C83.8187 31.9978 84.96 31.1412 86.1687 31.1412C88.0487 31.1412 89.07 32.817 89.07 34.7654C89.07 37.0038 87.9833 38.5483 86.1 38.5483ZM86.7133 29.7302C85.1267 29.7302 83.9573 30.4256 83.2473 31.6168H83.2067L83.1087 29.9524H81.522C81.5693 30.8742 81.6027 31.8885 81.6027 33.1334V43.3007L83.368 42.7332V38.4012H83.4087C83.9907 39.3713 85.1127 39.9397 86.4187 39.9397C88.706 39.9397 90.8587 38.2051 90.8587 34.6856C90.8587 31.7214 89.078 29.7302 86.7133 29.7302Z" fill="#F9D523"/>
<path d="M93.982 26.0862C93.3313 26.0861 92.876 26.5816 92.878 27.1915C92.876 27.7956 93.3073 28.295 93.95 28.295C94.656 28.295 95.0807 27.7956 95.0793 27.1914C95.0753 26.5711 94.6453 26.0861 93.982 26.0862Z" fill="#F9D523"/>
<path d="M94.8613 29.9521H93.094V39.7173H94.8613V29.9521Z" fill="#F9D523"/>
<path d="M100.228 27.1409L98.4887 27.5997V29.9521H96.976V31.2975H98.4887V36.6301C98.4887 37.7774 98.6887 38.6387 99.178 39.1775C99.6007 39.6601 100.279 39.9293 101.095 39.9293C101.785 39.9293 102.337 39.8207 102.681 39.685L102.6 38.3355C102.367 38.4076 102.031 38.4641 101.571 38.4641C100.579 38.4641 100.228 37.7768 100.228 36.5602V31.2975H102.78V29.9521H100.228V27.1409Z" fill="#F9D523"/>
<path d="M110.195 36.4296C110.195 36.5993 110.173 36.8002 110.111 36.9889C109.828 37.8145 109.017 38.6242 107.731 38.6242C106.84 38.6242 106.073 38.0892 106.073 36.9238C106.073 35.0355 108.273 34.6902 110.195 34.731V36.4296ZM111.925 33.7271C111.925 31.7709 111.198 29.7302 108.213 29.7302C106.981 29.7302 105.799 30.0646 104.989 30.5864L105.393 31.7674C106.077 31.3106 107.028 31.0396 107.937 31.0396C109.937 31.0288 110.16 32.4986 110.16 33.2922V33.4997C106.388 33.473 104.291 34.7722 104.291 37.1374C104.291 38.5392 105.301 39.9396 107.274 39.9396C108.673 39.9396 109.725 39.2465 110.262 38.4841H110.315L110.471 39.7174H112.073C111.963 39.0467 111.925 38.2148 111.925 37.3806V33.7271Z" fill="#F9D523"/>
<path d="M114.513 26.1597V39.7174H116.279V25.5918L114.513 26.1597Z" fill="#F9D523"/>
<path d="M67.6193 36.217C66.6212 37.8635 64.8069 38.8861 62.8844 38.8861C59.834 38.8861 57.3524 36.4044 57.3524 33.3541C57.3524 30.3037 59.834 27.8219 62.8844 27.8219C64.5518 27.8219 66.1132 28.5625 67.168 29.8538L67.242 29.9439H69.2033L68.97 29.5689C67.652 27.4514 65.3771 26.1873 62.8844 26.1873C58.9328 26.1873 55.7178 29.4023 55.7178 33.3541C55.7178 37.3057 58.9328 40.5205 62.8844 40.5205C65.6261 40.5205 68.164 38.9229 69.3493 36.4502L69.5173 36.099H67.6906L67.6193 36.217Z" fill="#F9D523"/>
<path d="M36.8077 28.4731C36.2082 30.1824 35.2808 31.7372 34.1006 33.0624H41.3313C37.9307 39.4813 31.1927 43.6295 23.7801 43.6295C12.8351 43.6295 3.93051 34.7251 3.93051 23.78C3.93051 12.8349 12.8351 3.93051 23.7801 3.93051C30.1215 3.93051 36.0023 6.94233 39.7175 11.945H44.4054C40.1637 4.56185 32.3216 0 23.7801 0C10.6678 0 0 10.6677 0 23.78C0 36.8923 10.6678 47.56 23.7801 47.56C33.8185 47.56 42.8241 41.2089 46.1889 31.7561L47.1231 28.4731H36.8077Z" fill="#F9D523"/>
<path d="M10.0739 23.9201C10.0739 21.6039 10.6474 19.4219 11.6587 17.507C12.2545 16.3463 13.0206 15.2637 13.9479 14.2891C16.5744 11.5286 20.1182 10.0084 23.927 10.0084C24.0632 10.0084 24.1988 10.0104 24.3342 10.0143C26.5649 10.0789 28.7318 10.7669 30.6172 11.9453H36.5866C33.5242 8.40415 29.0957 6.21997 24.448 6.08544C24.275 6.08036 24.1014 6.07788 23.927 6.07788C19.0313 6.07788 14.4761 8.03175 11.1003 11.5799C7.72651 15.1259 6.00291 19.7793 6.24726 24.6829C6.71651 34.1049 14.4816 41.4826 23.927 41.4826H23.9356C27.3269 41.4809 30.6226 40.5169 33.4701 38.6925C33.5905 38.6149 35.6464 37.2695 37.2717 34.962C35.5937 34.9475 33.917 34.8837 32.2409 34.7992C29.9152 36.6005 26.9966 37.6733 23.8271 37.6733C16.2314 37.6733 10.0739 31.5158 10.0739 23.9201Z" fill="#F9D523"/>
</g>
<defs>
<clipPath id="clip0_1_897">
<rect width="116.667" height="48" fill="white"/>
</clipPath>
</defs>
</svg>
