<svg width="30" height="30" viewBox="0 0 30 30" fill="none" xmlns="http://www.w3.org/2000/svg">
<path d="M18.7305 5.75H22.7695C23.5059 5.75 23.833 5.88793 23.9834 6.02148C24.1111 6.13496 24.25 6.372 24.25 6.98047V11.5195C24.25 12.1282 24.1107 12.3637 23.9844 12.4756C23.8543 12.5907 23.5893 12.7104 23.0322 12.7354L22.7744 12.7402H18.7305C17.9913 12.7402 17.6651 12.603 17.5156 12.4707C17.3898 12.3592 17.25 12.1245 17.25 11.5098V6.98047C17.25 6.372 17.3889 6.13496 17.5166 6.02148C17.667 5.88793 17.9941 5.75 18.7305 5.75Z" stroke="#151515" stroke-width="1.5"/>
<path d="M18.7305 17.25H22.7695C23.4894 17.25 23.8014 17.3991 23.9512 17.5488C24.1009 17.6986 24.25 18.0106 24.25 18.7305V22.7695C24.25 23.4894 24.1009 23.8014 23.9512 23.9512C23.8014 24.1009 23.4894 24.25 22.7695 24.25H18.7305C18.0106 24.25 17.6986 24.1009 17.5488 23.9512C17.3991 23.8014 17.25 23.4894 17.25 22.7695V18.7305C17.25 18.0106 17.3991 17.6986 17.5488 17.5488C17.6986 17.3991 18.0106 17.25 18.7305 17.25Z" stroke="#151515" stroke-width="1.5"/>
<path d="M7.23047 5.75H11.2695C12.0059 5.75 12.333 5.88793 12.4834 6.02148C12.6111 6.13496 12.75 6.372 12.75 6.98047V11.5195C12.75 12.1282 12.6107 12.3637 12.4844 12.4756C12.3543 12.5907 12.0893 12.7104 11.5322 12.7354L11.2744 12.7402H7.23047C6.49135 12.7402 6.16511 12.603 6.01562 12.4707C5.88978 12.3592 5.75 12.1245 5.75 11.5098V6.98047C5.75 6.372 5.88889 6.13496 6.0166 6.02148C6.16695 5.88793 6.49409 5.75 7.23047 5.75Z" stroke="#151515" stroke-width="1.5"/>
<path d="M7.23047 17.25H11.2695C11.9894 17.25 12.3014 17.3991 12.4512 17.5488C12.6009 17.6986 12.75 18.0106 12.75 18.7305V22.7695C12.75 23.4894 12.6009 23.8014 12.4512 23.9512C12.3014 24.1009 11.9894 24.25 11.2695 24.25H7.23047C6.51059 24.25 6.1986 24.1009 6.04883 23.9512C5.89906 23.8014 5.75 23.4894 5.75 22.7695V18.7305C5.75 18.0106 5.89906 17.6986 6.04883 17.5488C6.1986 17.3991 6.51059 17.25 7.23047 17.25Z" stroke="#151515" stroke-width="1.5"/>
</svg>
