<svg width="30" height="30" viewBox="0 0 30 30" fill="none" xmlns="http://www.w3.org/2000/svg">
<path d="M7.875 9.4375H22.875" stroke="#151515" stroke-width="1.5" stroke-miterlimit="10" stroke-linecap="round" stroke-linejoin="round"/>
<path d="M11.625 9.4375V7.75C11.625 5.67892 13.3039 4 15.375 4C17.4461 4 19.125 5.67892 19.125 7.75V9.4375" stroke="#151515" stroke-width="1.5" stroke-miterlimit="10" stroke-linecap="round" stroke-linejoin="round"/>
<path d="M19.125 13.1875C19.125 15.2586 17.4461 16.9375 15.375 16.9375C13.3039 16.9375 11.625 15.2586 11.625 13.1875" stroke="#151515" stroke-width="1.5" stroke-miterlimit="10" stroke-linecap="round" stroke-linejoin="round"/>
<path d="M22.875 9.4375L24.7352 24.0132C24.7449 24.0908 24.75 24.1698 24.75 24.25C24.75 25.2855 23.9105 26.125 22.875 26.125H7.875C6.83948 26.125 6 25.2855 6 24.25C6 24.1698 6.00502 24.0908 6.01481 24.0132L7.875 9.4375" stroke="#151515" stroke-width="1.5" stroke-miterlimit="10" stroke-linecap="round" stroke-linejoin="round"/>
</svg>
