<svg width="30" height="30" viewBox="0 0 30 30" fill="none" xmlns="http://www.w3.org/2000/svg">
<path d="M20 24.25H10C6.35 24.25 4.25 22.15 4.25 18.5V11.5C4.25 7.85 6.35 5.75 10 5.75H20C23.65 5.75 25.75 7.85 25.75 11.5V18.5C25.75 22.15 23.65 24.25 20 24.25ZM10 7.25C7.14 7.25 5.75 8.64 5.75 11.5V18.5C5.75 21.36 7.14 22.75 10 22.75H20C22.86 22.75 24.25 21.36 24.25 18.5V11.5C24.25 8.64 22.86 7.25 20 7.25H10Z" fill="#151515"/>
<path d="M14.9988 15.87C14.1588 15.87 13.3088 15.61 12.6588 15.08L9.5288 12.58C9.2088 12.32 9.14881 11.85 9.4088 11.53C9.6688 11.21 10.1388 11.15 10.4588 11.41L13.5888 13.91C14.3488 14.52 15.6388 14.52 16.3988 13.91L19.5288 11.41C19.8488 11.15 20.3288 11.2 20.5788 11.53C20.8388 11.85 20.7888 12.33 20.4588 12.58L17.3288 15.08C16.6888 15.61 15.8388 15.87 14.9988 15.87Z" fill="#151515"/>
</svg>
