<svg width="30" height="30" viewBox="0 0 30 30" fill="none" xmlns="http://www.w3.org/2000/svg">
<path d="M21.1 20.75H8.89999C6.57999 20.75 5.25 19.42 5.25 17.1V5C5.25 4.59 5.59 4.25 6 4.25L24 4.25C24.41 4.25 24.75 4.59 24.75 5V17.1C24.75 19.42 23.42 20.75 21.1 20.75ZM6.75 5.75V17.1C6.75 18.59 7.40999 19.25 8.89999 19.25H21.09C22.58 19.25 23.24 18.59 23.24 17.1V5.75H6.75Z" fill="black"/>
<path d="M25 5.75L5 5.75C4.59 5.75 4.25 5.41 4.25 5C4.25 4.59 4.59 4.25 5 4.25L25 4.25C25.41 4.25 25.75 4.59 25.75 5C25.75 5.41 25.41 5.75 25 5.75Z" fill="black"/>
<path d="M11.0003 25.75C10.7203 25.75 10.4603 25.6 10.3303 25.34C10.1403 24.97 10.2903 24.52 10.6703 24.33L14.2503 22.54V20C14.2503 19.59 14.5903 19.25 15.0003 19.25C15.4103 19.25 15.7503 19.59 15.7503 20V23C15.7503 23.28 15.5903 23.54 15.3303 23.67L11.3303 25.67C11.2303 25.72 11.1103 25.75 11.0003 25.75Z" fill="black"/>
<path d="M18.9999 25.7497C18.8899 25.7497 18.77 25.7197 18.67 25.6697L14.67 23.6697C14.3 23.4797 14.1499 23.0297 14.3299 22.6597C14.5199 22.2897 14.9699 22.1397 15.3399 22.3197L19.3399 24.3197C19.7099 24.5097 19.8599 24.9597 19.6799 25.3297C19.5399 25.5997 19.2699 25.7497 18.9999 25.7497Z" fill="black"/>
<path d="M10.4989 14.7497C10.2889 14.7497 10.069 14.6597 9.91896 14.4797C9.64896 14.1597 9.69894 13.6897 10.0189 13.4197L13.169 10.7897C13.459 10.5497 13.8289 10.4497 14.1789 10.5097C14.5389 10.5697 14.849 10.7897 15.039 11.1097L16.0889 12.8597L19.0189 10.4197C19.3389 10.1597 19.8089 10.1997 20.0789 10.5197C20.3489 10.8397 20.299 11.3097 19.979 11.5797L16.8289 14.2097C16.5389 14.4497 16.169 14.5497 15.819 14.4897C15.459 14.4297 15.1489 14.2097 14.9589 13.8897L13.909 12.1397L10.979 14.5797C10.839 14.6897 10.6689 14.7497 10.4989 14.7497Z" fill="black"/>
</svg>
